# xmcd
#
# Track frame offsets:
# 150
# 12432
# 26585
# 40680
# 56015
# 67680
# 76357
# 91737
# 102587
# 120417
# 133325
# 144185
# 161225
# 174220
# 188310
# 200937
#
# Disc length: 2862 seconds
#
# Revision: 0
# Processed by: cddbd v1.4PL0 Copyright (c) Steve Scherf et al.
# Submitted via: MacMP3 Pro 5.0 (http://mp3.act2.co.jp/)
#
DISCID=cd0b2c10
DTITLE=Original Soundtrack - SCREEN MUSIC
DYEAR=1900
DGENRE=
TTITLE0=UN HOMME ET UNE FEMME
TTITLE1=VIVRE POUR VIVRE
TTITLE2=MANHA DE CARNAAVAL
TTITLE3=PLEIN SOLEIL
TTITLE4=LA RAGAZZA DI BUBE
TTITLE5=SINNO' ME MORO
TTITLE6=SUMMERTIME IN VENICE
TTITLE7=JEUX IN TERDITS
TTITLE8=THE HARRY LIME THEME
TTITLE9=SONG FROM MOULIN ROUGE
TTITLE10=LA DEDICO A TE
TTITLE11=MORE
TTITLE12=DES GENS SANS IMPORTANCE
TTITLE13=CANCION DE MARCELINO
TTITLE14=TERRY'S THEME
TTITLE15=I WILL WAIT FOR YOU
EXTD=
EXTT0=
EXTT1=
EXTT2=
EXTT3=
EXTT4=
EXTT5=
EXTT6=
EXTT7=
EXTT8=
EXTT9=
EXTT10=
EXTT11=
EXTT12=
EXTT13=
EXTT14=
EXTT15=
PLAYORDER=
